<svg width="526" height="572" viewBox="0 0 526 572" fill="none" xmlns="http://www.w3.org/2000/svg">
<path d="M3 309V509C3 516.088 6.63516 521.875 11.0894 526.228C15.527 530.565 21.5353 534.27 28.3715 537.503C42.0947 543.992 61.3139 549.571 84.2621 554.161C130.323 563.373 193.511 569 263 569C332.489 569 395.677 563.373 441.738 554.161C464.686 549.571 483.905 543.992 497.628 537.503C504.465 534.27 510.473 530.565 514.911 526.228C519.365 521.875 523 516.088 523 509V309" stroke="#181619" stroke-width="5"/>
<path d="M263 359C401.071 359 513 336.614 513 309V509C513 536.614 401.071 559 263 559C124.929 559 13 536.614 13 509V309C13 336.614 124.929 359 263 359Z" fill="#EEE8FC"/>
<path d="M96 236C88.7595 237.163 90.8364 236.524 84.2621 237.839C61.3139 242.429 42.0947 248.009 28.3715 254.498C21.5353 257.73 15.527 261.435 11.0894 265.772C6.63516 270.125 3 275.912 3 283C3 290.089 6.63516 295.875 11.0894 300.228C15.527 304.566 21.5353 308.27 28.3715 311.503C42.0947 317.992 61.3139 323.572 84.2621 328.161C130.323 337.374 193.511 343 263 343C332.489 343 395.677 337.374 441.738 328.161C464.686 323.572 483.905 317.992 497.628 311.503C504.465 308.27 510.473 304.566 514.911 300.228C519.365 295.875 523 290.089 523 283C523 275.912 519.365 270.125 514.911 265.772C510.473 261.435 504.465 257.73 497.628 254.498C483.905 248.009 464.686 242.429 441.738 237.839C437.94 237.079 434.025 236.344 430 235.634M186 225C196.087 224.436 208.374 223.964 221 223.62M311 223.913C320.878 224.294 330.557 224.791 340 225.396" stroke="#181619" stroke-width="5"/>
<path d="M263 333.001C401.071 333.001 513 310.615 513 283.001C513 268.224 480.952 254.945 430 245.792V294.001H340V235.417C330.566 234.807 320.887 234.306 311 233.921V326.001H221V233.703C209.022 234.108 197.334 234.684 186 235.417V307.001H96V245.792C45.0477 254.945 13 268.224 13 283.001C13 310.615 124.929 333.001 263 333.001Z" fill="#EEE8FC"/>
<path d="M111 119.5H108.5V122V292V294.5H111H171H173.5V292V122V119.5H171H111Z" stroke="#181619" stroke-width="5"/>
<rect x="121" y="132" width="40" height="150" fill="#EEE8FC"/>
<path d="M136.485 3.59852C136.137 4.06395 135.976 4.58102 135.896 4.96849C135.528 5.75754 134.897 7.05135 134.071 8.74653C131.327 14.3772 126.424 24.4362 121.8 35.1352C118.672 42.3703 115.615 50.0201 113.336 57.0248C111.078 63.9628 109.5 70.5115 109.5 75.451C109.5 85.9172 112.636 93.3348 118.122 98.0828C123.54 102.772 130.845 104.5 138.487 104.5C146.361 104.5 157.637 100.829 164.908 95.4666C168.518 92.8047 171.599 89.3899 172.336 85.37C173.126 81.0544 171.088 76.9658 166.489 73.4623C162.993 70.7992 159.504 65.7694 156.242 59.2692C153.016 52.8396 150.15 45.2538 147.782 37.7803C145.417 30.3142 143.567 23.0183 142.36 17.1949C141.756 14.2819 141.318 11.7594 141.055 9.78265C140.828 8.07239 140.757 6.93272 140.772 6.31946C140.847 6.14137 140.919 5.95747 140.967 5.79658C140.968 5.79489 140.968 5.79283 140.969 5.79041C140.987 5.73123 141.071 5.45661 141.084 5.11463C141.085 5.11226 141.085 5.1096 141.085 5.10664C141.09 4.9835 141.116 4.35826 140.723 3.70919C140.476 3.29978 140.057 2.88027 139.446 2.65482C138.867 2.44137 138.349 2.48799 138.02 2.56294C137.458 2.69123 137.093 2.98234 137.008 3.05024L137.005 3.05312C136.867 3.1631 136.767 3.26578 136.716 3.32034C136.611 3.43362 136.529 3.53997 136.485 3.59852Z" stroke="#181619" stroke-width="5"/>
<path d="M157 75.0724C169.5 84.5724 148.046 95.0724 137 95.0724C125.954 95.0724 117 90.0724 117 75.0724C117 61.4505 134.731 27.2112 136.866 22.5327C136.892 22.3122 136.937 22.157 137 22.0724C137.138 21.8886 137.081 22.0593 136.866 22.5327C136.267 27.5255 145.029 65.9741 157 75.0724Z" fill="#EEE8FC"/>
<path d="M236 181.5H233.5V184V311V313.5H236H296H298.5V311V184V181.5H296H236Z" stroke="#181619" stroke-width="5"/>
<rect x="246" y="191" width="40" height="113" fill="#EEE8FC"/>
<path d="M261.485 65.5985C261.137 66.0639 260.976 66.581 260.896 66.9685C260.528 67.7575 259.897 69.0513 259.071 70.7465C256.327 76.3772 251.424 86.4362 246.8 97.1352C243.672 104.37 240.615 112.02 238.336 119.025C236.078 125.963 234.5 132.511 234.5 137.451C234.5 147.917 237.636 155.335 243.122 160.083C248.54 164.772 255.845 166.5 263.487 166.5C271.361 166.5 282.637 162.829 289.908 157.467C293.518 154.805 296.599 151.39 297.336 147.37C298.126 143.054 296.088 138.966 291.489 135.462C287.993 132.799 284.504 127.769 281.242 121.269C278.016 114.84 275.15 107.254 272.782 99.7803C270.417 92.3142 268.567 85.0183 267.36 79.1949C266.756 76.2819 266.318 73.7594 266.055 71.7826C265.828 70.0724 265.757 68.9327 265.772 68.3195C265.847 68.1414 265.919 67.9575 265.967 67.7966C265.968 67.7949 265.968 67.7928 265.969 67.7904C265.987 67.7312 266.071 67.4566 266.084 67.1146C266.085 67.1123 266.085 67.1096 266.085 67.1066C266.09 66.9835 266.116 66.3583 265.723 65.7092C265.476 65.2998 265.057 64.8803 264.446 64.6548C263.867 64.4414 263.349 64.488 263.02 64.5629C262.458 64.6912 262.093 64.9823 262.008 65.0502L262.005 65.0531C261.867 65.1631 261.767 65.2658 261.716 65.3203C261.611 65.4336 261.529 65.54 261.485 65.5985Z" stroke="#181619" stroke-width="5"/>
<path d="M282 137.072C294.5 146.572 273.046 157.072 262 157.072C250.954 157.072 242 152.072 242 137.072C242 123.451 259.731 89.2112 261.866 84.5327C261.892 84.3122 261.937 84.157 262 84.0724C262.138 83.8886 262.081 84.0593 261.866 84.5327C261.267 89.5255 270.029 127.974 282 137.072Z" fill="#EEE8FC"/>
<path d="M355 123.5H352.5V126V279V281.5H355H415H417.5V279V126V123.5H415H355Z" stroke="#181619" stroke-width="5"/>
<rect x="365" y="135" width="40" height="135" fill="#EEE8FC"/>
<path d="M380.485 7.59852C380.137 8.06395 379.976 8.58102 379.896 8.96849C379.528 9.75754 378.897 11.0513 378.071 12.7465C375.327 18.3772 370.424 28.4362 365.8 39.1352C362.672 46.3703 359.615 54.0201 357.336 61.0248C355.078 67.9628 353.5 74.5115 353.5 79.451C353.5 89.9172 356.636 97.3348 362.122 102.083C367.54 106.772 374.845 108.5 382.487 108.5C390.361 108.5 401.637 104.829 408.908 99.4666C412.518 96.8047 415.599 93.3899 416.336 89.37C417.126 85.0544 415.088 80.9658 410.489 77.4623C406.993 74.7992 403.504 69.7694 400.242 63.2692C397.016 56.8396 394.15 49.2538 391.782 41.7803C389.417 34.3142 387.567 27.0183 386.36 21.1949C385.756 18.2819 385.318 15.7594 385.055 13.7826C384.828 12.0724 384.757 10.9327 384.772 10.3195C384.847 10.1414 384.919 9.95747 384.967 9.79658C384.968 9.79489 384.968 9.79283 384.969 9.79041C384.987 9.73123 385.071 9.45661 385.084 9.11463C385.085 9.11226 385.085 9.1096 385.085 9.10664C385.09 8.9835 385.116 8.35826 384.723 7.70919C384.476 7.29978 384.057 6.88027 383.446 6.65482C382.867 6.44137 382.349 6.48799 382.02 6.56294C381.458 6.69123 381.093 6.98234 381.008 7.05024L381.005 7.05312C380.867 7.1631 380.767 7.26578 380.716 7.32034C380.611 7.43362 380.529 7.53997 380.485 7.59852Z" stroke="#181619" stroke-width="5"/>
<path d="M401 79.0724C413.5 88.5724 392.046 99.0724 381 99.0724C369.954 99.0724 361 94.0724 361 79.0724C361 65.4505 378.731 31.2112 380.866 26.5327C380.892 26.3122 380.937 26.157 381 26.0724C381.138 25.8886 381.081 26.0593 380.866 26.5327C380.267 31.5255 389.029 69.9741 401 79.0724Z" fill="#EEE8FC"/>
</svg>
