<svg width="2264" height="154" viewBox="0 0 2264 154" fill="none" xmlns="http://www.w3.org/2000/svg">
<g filter="url(#filter0_d_48_14)">
<path d="M45.4405 83.512L30.3365 94.392C32.3845 98.6587 35.2432 102.584 38.9125 106.168C42.5819 109.752 46.8912 112.611 51.8405 114.744C56.8752 116.792 62.2939 117.816 68.0965 117.816C72.2779 117.816 76.3312 117.176 80.2565 115.896C84.2672 114.701 87.8086 112.909 90.8806 110.52C94.0379 108.131 96.5126 105.187 98.3046 101.688C100.182 98.104 101.121 94.0507 101.121 89.528C101.121 85.7733 100.523 82.4453 99.3286 79.544C98.1339 76.6427 96.4699 74.0827 94.3366 71.864C92.2886 69.6453 89.8992 67.768 87.1686 66.232C84.4379 64.6107 81.4939 63.2027 78.3366 62.008C74.1552 60.5573 70.5712 59.192 67.5845 57.912C64.6832 56.632 62.4219 55.224 60.8006 53.688C59.2646 52.152 58.4966 50.36 58.4966 48.312C58.4966 46.3493 59.3072 44.728 60.9286 43.448C62.5499 42.0827 64.8966 41.4 67.9686 41.4C70.2725 41.4 72.4059 41.8693 74.3685 42.808C76.4166 43.6613 78.2512 44.8987 79.8726 46.52C81.5792 48.056 83.0726 49.8907 84.3526 52.024L100.865 42.808C99.3286 39.736 97.1099 36.7067 94.2085 33.72C91.3072 30.7333 87.6379 28.2587 83.2006 26.296C78.8486 24.3333 73.6859 23.352 67.7126 23.352C61.9099 23.352 56.6192 24.376 51.8405 26.424C47.1472 28.3867 43.3926 31.288 40.5765 35.128C37.8459 38.968 36.4805 43.5333 36.4805 48.824C36.4805 53.2613 37.2912 57.0587 38.9125 60.216C40.5339 63.288 42.5819 65.9333 45.0565 68.152C47.5312 70.2853 50.1339 72.0347 52.8645 73.4C55.6806 74.7653 58.1552 75.832 60.2886 76.6C64.6406 78.2213 68.1392 79.672 70.7845 80.952C73.4299 82.232 75.3499 83.5973 76.5446 85.048C77.7392 86.4133 78.3366 88.248 78.3366 90.552C78.3366 93.2827 77.3126 95.4587 75.2645 97.08C73.2166 98.616 70.6139 99.384 67.4566 99.384C64.4699 99.384 61.6112 98.744 58.8806 97.464C56.2352 96.184 53.7606 94.3493 51.4566 91.96C49.2379 89.5707 47.2325 86.7547 45.4405 83.512ZM637.484 85.56C637.484 91.704 638.934 97.08 641.836 101.688C644.737 106.296 648.748 109.88 653.868 112.44C658.988 115 664.748 116.28 671.148 116.28C677.548 116.28 683.265 115 688.3 112.44C693.42 109.88 697.43 106.296 700.332 101.688C703.318 97.08 704.812 91.704 704.812 85.56C704.812 79.3307 703.318 73.912 700.332 69.304C697.43 64.696 693.42 61.112 688.3 58.552C683.265 55.992 677.548 54.712 671.148 54.712C664.748 54.712 658.988 55.992 653.868 58.552C648.748 61.112 644.737 64.696 641.836 69.304C638.934 73.912 637.484 79.3307 637.484 85.56ZM657.324 85.56C657.324 82.488 657.964 79.8427 659.244 77.624C660.524 75.4053 662.188 73.6987 664.236 72.504C666.284 71.3093 668.588 70.712 671.148 70.712C673.622 70.712 675.884 71.3093 677.932 72.504C680.065 73.6987 681.729 75.4053 682.924 77.624C684.204 79.8427 684.844 82.488 684.844 85.56C684.844 88.632 684.204 91.2773 682.924 93.496C681.729 95.6293 680.065 97.2933 677.932 98.488C675.884 99.6827 673.622 100.28 671.148 100.28C668.588 100.28 666.284 99.6827 664.236 98.488C662.188 97.2933 660.524 95.6293 659.244 93.496C657.964 91.2773 657.324 88.632 657.324 85.56ZM1287.29 56.12H1268.21V115H1287.29V56.12ZM1304.31 76.088L1312.63 59.576C1311.61 58.04 1310.11 56.8453 1308.15 55.992C1306.19 55.1387 1304.14 54.712 1302.01 54.712C1298.76 54.712 1295.65 55.7787 1292.66 57.912C1289.68 60.0453 1287.24 62.9467 1285.37 66.616C1283.57 70.2853 1282.68 74.4667 1282.68 79.16L1287.29 85.944C1287.29 83.128 1287.67 80.7387 1288.44 78.776C1289.21 76.8133 1290.32 75.32 1291.77 74.296C1293.22 73.272 1294.88 72.76 1296.76 72.76C1298.47 72.76 1299.87 73.0587 1300.98 73.656C1302.18 74.2533 1303.29 75.064 1304.31 76.088ZM1847.28 85.56C1847.28 91.704 1848.73 97.08 1851.64 101.688C1854.54 106.296 1858.55 109.88 1863.67 112.44C1868.79 115 1874.55 116.28 1880.95 116.28C1887.35 116.28 1893.06 115 1898.1 112.44C1903.22 109.88 1907.23 106.296 1910.13 101.688C1913.12 97.08 1914.61 91.704 1914.61 85.56C1914.61 79.3307 1913.12 73.912 1910.13 69.304C1907.23 64.696 1903.22 61.112 1898.1 58.552C1893.06 55.992 1887.35 54.712 1880.95 54.712C1874.55 54.712 1868.79 55.992 1863.67 58.552C1858.55 61.112 1854.54 64.696 1851.64 69.304C1848.73 73.912 1847.28 79.3307 1847.28 85.56ZM1867.12 85.56C1867.12 82.488 1867.76 79.8427 1869.04 77.624C1870.32 75.4053 1871.99 73.6987 1874.04 72.504C1876.08 71.3093 1878.39 70.712 1880.95 70.712C1883.42 70.712 1885.68 71.3093 1887.73 72.504C1889.86 73.6987 1891.53 75.4053 1892.72 77.624C1894 79.8427 1894.64 82.488 1894.64 85.56C1894.64 88.632 1894 91.2773 1892.72 93.496C1891.53 95.6293 1889.86 97.2933 1887.73 98.488C1885.68 99.6827 1883.42 100.28 1880.95 100.28C1878.39 100.28 1876.08 99.6827 1874.04 98.488C1871.99 97.2933 1870.32 95.6293 1869.04 93.496C1867.76 91.2773 1867.12 88.632 1867.12 85.56Z" fill="#F15488"/>
<path d="M360.321 15.16H340.865V115H360.321V15.16ZM379.137 79.16V115H398.465V76.344C398.465 71.48 397.782 67.384 396.417 64.056C395.051 60.728 392.875 58.2107 389.889 56.504C386.987 54.7973 383.105 53.944 378.241 53.944C373.377 53.944 369.366 55.096 366.209 57.4C363.137 59.6187 360.833 62.648 359.297 66.488C357.761 70.2427 356.993 74.4667 356.993 79.16H360.321C360.321 76.856 360.747 74.936 361.601 73.4C362.454 71.7787 363.649 70.5413 365.185 69.688C366.721 68.7493 368.513 68.28 370.561 68.28C373.718 68.28 375.937 69.2187 377.217 71.096C378.497 72.9733 379.137 75.6613 379.137 79.16ZM935.192 56.12L965.528 118.712L984.6 83.64L1004.06 118.712L1034.39 56.12H1014.17L1001.88 86.328L984.6 51.64L967.704 86.328L955.416 56.12H935.192ZM1544.58 85.56C1544.58 91.704 1546.03 97.08 1548.94 101.688C1551.84 106.296 1555.85 109.88 1560.97 112.44C1566.09 115 1571.85 116.28 1578.25 116.28C1584.65 116.28 1590.36 115 1595.4 112.44C1600.52 109.88 1604.53 106.296 1607.43 101.688C1610.42 97.08 1611.91 91.704 1611.91 85.56C1611.91 79.3307 1610.42 73.912 1607.43 69.304C1604.53 64.696 1600.52 61.112 1595.4 58.552C1590.36 55.992 1584.65 54.712 1578.25 54.712C1571.85 54.712 1566.09 55.992 1560.97 58.552C1555.85 61.112 1551.84 64.696 1548.94 69.304C1546.03 73.912 1544.58 79.3307 1544.58 85.56ZM1564.42 85.56C1564.42 82.488 1565.06 79.8427 1566.34 77.624C1567.62 75.4053 1569.29 73.6987 1571.34 72.504C1573.38 71.3093 1575.69 70.712 1578.25 70.712C1580.72 70.712 1582.98 71.3093 1585.03 72.504C1587.16 73.6987 1588.83 75.4053 1590.02 77.624C1591.3 79.8427 1591.94 82.488 1591.94 85.56C1591.94 88.632 1591.3 91.2773 1590.02 93.496C1588.83 95.6293 1587.16 97.2933 1585.03 98.488C1582.98 99.6827 1580.72 100.28 1578.25 100.28C1575.69 100.28 1573.38 99.6827 1571.34 98.488C1569.29 97.2933 1567.62 95.6293 1566.34 93.496C1565.06 91.2773 1564.42 88.632 1564.42 85.56ZM2243.3 77.112C2243.3 72.3333 2242.7 68.28 2241.5 64.952C2240.31 61.624 2238.35 59.1067 2235.62 57.4C2232.97 55.608 2229.34 54.712 2224.74 54.712C2220.72 54.712 2217.14 55.5653 2213.98 57.272C2210.83 58.9787 2208.18 61.368 2206.05 64.44C2204.85 61.2827 2202.89 58.8933 2200.16 57.272C2197.43 55.5653 2193.76 54.712 2189.15 54.712C2185.14 54.712 2181.68 55.608 2178.78 57.4C2175.97 59.192 2173.75 61.6667 2172.13 64.824V56.12H2153.44V115H2172.13V79.16C2172.13 76.7707 2172.47 74.7653 2173.15 73.144C2173.92 71.5227 2174.94 70.328 2176.22 69.56C2177.59 68.7067 2179.12 68.28 2180.83 68.28C2183.48 68.28 2185.35 69.2187 2186.46 71.096C2187.66 72.888 2188.26 75.576 2188.26 79.16V115H2207.71V79.16C2207.71 76.7707 2208.05 74.7653 2208.74 73.144C2209.5 71.5227 2210.53 70.328 2211.81 69.56C2213.17 68.7067 2214.71 68.28 2216.42 68.28C2219.06 68.28 2220.94 69.2187 2222.05 71.096C2223.24 72.888 2223.84 75.576 2223.84 79.16V115H2243.3V77.112Z" fill="#8F5BFF"/>
<path d="M26.1125 131H333.313V137.4H26.1125V131ZM633.388 131H936.108V137.4H633.388V131ZM1260.66 131H1540.47V137.4H1260.66V131ZM1843.19 131H2145.91V137.4H1843.19V131Z" fill="#F15488"/>
<path d="M333.313 131H633.345V137.4H333.313V131ZM936.088 131H1260.7V137.4H936.088V131ZM1540.49 131H1843.21V137.4H1540.49V131ZM2145.89 131H2250.85V137.4H2145.89V131Z" fill="#8F5BFF"/>
</g>
<defs>
<filter id="filter0_d_48_14" x="0.336426" y="0.159912" width="2262.96" height="153.552" filterUnits="userSpaceOnUse" color-interpolation-filters="sRGB">
<feFlood flood-opacity="0" result="BackgroundImageFix"/>
<feColorMatrix in="SourceAlpha" type="matrix" values="0 0 0 0 0 0 0 0 0 0 0 0 0 0 0 0 0 0 127 0" result="hardAlpha"/>
<feOffset dx="-5" dy="10"/>
<feGaussianBlur stdDeviation="12.5"/>
<feComposite in2="hardAlpha" operator="out"/>
<feColorMatrix type="matrix" values="0 0 0 0 0.0980392 0 0 0 0 0.0862745 0 0 0 0 0.0901961 0 0 0 0.15 0"/>
<feBlend mode="normal" in2="BackgroundImageFix" result="effect1_dropShadow_48_14"/>
<feBlend mode="normal" in="SourceGraphic" in2="effect1_dropShadow_48_14" result="shape"/>
</filter>
</defs>
</svg>
