<svg width="596" height="66" viewBox="0 0 596 66" fill="none" xmlns="http://www.w3.org/2000/svg">
<g opacity="0.75">
<path d="M6.392 54.096L0.504 61.648C1.4 62.2453 2.46667 62.8 3.704 63.312C4.94133 63.8667 6.328 64.336 7.864 64.72C9.4 65.104 11 65.296 12.664 65.296C14.6267 65.296 16.504 65.0613 18.296 64.592C20.088 64.1653 21.6667 63.4827 23.032 62.544C24.3973 61.648 25.464 60.432 26.232 58.896C27 57.4027 27.384 55.5893 27.384 53.456V5.2H15.736V51.024C15.736 52.9013 15.288 54.224 14.392 54.992C13.496 55.76 12.5573 56.144 11.576 56.144C10.6373 56.144 9.69867 55.9307 8.76 55.504C7.82133 55.12 7.032 54.6507 6.392 54.096ZM138.314 39.312L134.282 45.712C135.604 46.736 137.034 47.6747 138.57 48.528C140.106 49.3387 141.77 49.9787 143.562 50.448C145.396 50.96 147.38 51.216 149.514 51.216C153.012 51.216 155.722 50.4267 157.642 48.848C159.604 47.2267 160.586 44.8373 160.586 41.68C160.586 39.8453 160.18 38.3733 159.37 37.264C158.602 36.1547 157.556 35.2373 156.234 34.512C154.954 33.7867 153.546 33.1467 152.01 32.592C150.559 32.0373 149.322 31.5893 148.298 31.248C147.316 30.864 146.548 30.4587 145.994 30.032C145.482 29.6053 145.226 29.072 145.226 28.432C145.226 27.8773 145.439 27.4293 145.866 27.088C146.335 26.7467 147.018 26.576 147.914 26.576C149.236 26.576 150.687 26.96 152.266 27.728C153.844 28.4533 155.252 29.392 156.49 30.544L159.946 24.272C158.794 23.4187 157.556 22.672 156.234 22.032C154.954 21.392 153.567 20.88 152.074 20.496C150.623 20.112 149.044 19.92 147.338 19.92C145.204 19.92 143.306 20.24 141.642 20.88C140.02 21.52 138.719 22.4587 137.738 23.696C136.799 24.9333 136.33 26.448 136.33 28.24C136.33 30.1173 136.735 31.6533 137.546 32.848C138.356 34.0427 139.38 35.0027 140.618 35.728C141.898 36.4107 143.242 37.008 144.65 37.52C146.228 37.9893 147.466 38.4373 148.362 38.864C149.3 39.2907 149.962 39.7387 150.346 40.208C150.73 40.6347 150.922 41.168 150.922 41.808C150.922 42.4907 150.687 43.0453 150.218 43.472C149.748 43.8987 149.023 44.112 148.042 44.112C147.359 44.112 146.548 43.984 145.61 43.728C144.671 43.4293 143.583 42.9387 142.345 42.256C141.151 41.5307 139.807 40.5493 138.314 39.312ZM311.64 27.6C311.64 24.8267 312.258 22.4587 313.496 20.496C314.733 18.5333 316.354 17.04 318.36 16.016C320.408 14.992 322.648 14.48 325.08 14.48C327.213 14.48 329.09 14.7573 330.712 15.312C332.333 15.824 333.784 16.5493 335.064 17.488C336.344 18.384 337.474 19.344 338.456 20.368V8.72C336.664 7.312 334.701 6.20266 332.568 5.392C330.434 4.58133 327.725 4.176 324.44 4.176C320.856 4.176 317.549 4.73066 314.52 5.84C311.49 6.94933 308.888 8.54933 306.712 10.64C304.536 12.7307 302.85 15.2053 301.656 18.064C300.461 20.9227 299.864 24.1013 299.864 27.6C299.864 31.0987 300.461 34.2773 301.656 37.136C302.85 39.9947 304.536 42.4693 306.712 44.56C308.888 46.6507 311.49 48.2507 314.52 49.36C317.549 50.4693 320.856 51.024 324.44 51.024C327.725 51.024 330.434 50.6187 332.568 49.808C334.701 48.9973 336.664 47.888 338.456 46.48V34.832C337.474 35.856 336.344 36.816 335.064 37.712C333.784 38.608 332.333 39.3333 330.712 39.888C329.09 40.4427 327.213 40.72 325.08 40.72C322.648 40.72 320.408 40.208 318.36 39.184C316.354 38.16 314.733 36.6667 313.496 34.704C312.258 32.6987 311.64 30.3307 311.64 27.6ZM444.775 0.079998V50H454.055V0.079998H444.775ZM464.743 20.56L452.135 32.72L466.215 50H477.607L463.719 32.72L476.326 20.56H464.743ZM583.68 5.2L585.792 35.216H593.6L595.648 5.2H583.68ZM583.68 46.032C583.68 47.6533 584.234 48.976 585.344 50C586.496 51.024 587.946 51.536 589.696 51.536C591.445 51.536 592.874 51.024 593.984 50C595.136 48.976 595.712 47.6533 595.712 46.032C595.712 44.4107 595.136 43.088 593.984 42.064C592.874 41.04 591.445 40.528 589.696 40.528C587.946 40.528 586.496 41.04 585.344 42.064C584.234 43.088 583.68 44.4107 583.68 46.032Z" fill="#F15488"/>
<path d="M78.013 38.48V20.56H67.901V39.504C67.901 43.0027 68.733 45.7547 70.397 47.76C72.1037 49.7227 74.7917 50.704 78.461 50.704C80.637 50.704 82.4503 50.256 83.901 49.36C85.3517 48.4213 86.525 47.1627 87.421 45.584V50H97.085V20.56H87.421V38.48C87.421 39.632 87.2077 40.6133 86.781 41.424C86.3543 42.2347 85.757 42.8533 84.989 43.28C84.2637 43.7067 83.3677 43.92 82.301 43.92C80.7223 43.92 79.613 43.4507 78.973 42.512C78.333 41.5307 78.013 40.1867 78.013 38.48ZM194.445 20.56V28.56H214.157V20.56H194.445ZM199.629 10.32V50H208.909V10.32H199.629ZM385.827 40.784C385.827 40.0587 385.997 39.4613 386.339 38.992C386.68 38.48 387.192 38.096 387.875 37.84C388.557 37.584 389.475 37.456 390.627 37.456C392.12 37.456 393.528 37.6693 394.851 38.096C396.216 38.48 397.411 39.056 398.435 39.824V35.536C397.923 34.9813 397.155 34.448 396.131 33.936C395.107 33.424 393.869 32.9973 392.419 32.656C391.011 32.3147 389.411 32.144 387.619 32.144C383.949 32.144 381.112 32.976 379.107 34.64C377.101 36.2613 376.099 38.48 376.099 41.296C376.099 43.3013 376.568 45.008 377.507 46.416C378.488 47.824 379.768 48.8907 381.347 49.616C382.968 50.2987 384.717 50.64 386.595 50.64C388.472 50.64 390.221 50.32 391.843 49.68C393.464 48.9973 394.787 48.016 395.811 46.736C396.835 45.4133 397.347 43.8133 397.347 41.936L396.323 38.096C396.323 39.4613 396.024 40.6133 395.427 41.552C394.829 42.4907 394.061 43.1947 393.123 43.664C392.184 44.1333 391.16 44.368 390.051 44.368C389.283 44.368 388.579 44.24 387.939 43.984C387.299 43.6853 386.787 43.28 386.403 42.768C386.019 42.2133 385.827 41.552 385.827 40.784ZM381.539 29.584C381.965 29.328 382.648 29.008 383.587 28.624C384.525 28.1973 385.613 27.8347 386.851 27.536C388.131 27.2373 389.432 27.088 390.755 27.088C391.651 27.088 392.44 27.1733 393.123 27.344C393.848 27.5147 394.445 27.792 394.915 28.176C395.384 28.56 395.725 29.0293 395.939 29.584C396.195 30.096 396.323 30.7147 396.323 31.44V50H405.603V29.264C405.603 27.216 405.005 25.488 403.811 24.08C402.616 22.672 400.995 21.6053 398.947 20.88C396.899 20.112 394.573 19.728 391.971 19.728C389.197 19.728 386.637 20.0907 384.291 20.816C381.944 21.5413 379.939 22.3093 378.275 23.12L381.539 29.584ZM528.752 50.64C532.507 50.64 535.685 49.9147 538.288 48.464C540.933 47.0133 543.024 44.8373 544.56 41.936L535.92 39.824C535.195 41.104 534.213 42.064 532.976 42.704C531.781 43.344 530.331 43.664 528.624 43.664C527.131 43.664 525.872 43.344 524.848 42.704C523.824 42.0213 523.056 41.04 522.544 39.76C522.032 38.48 521.776 36.944 521.776 35.152C521.819 33.1893 522.075 31.568 522.544 30.288C523.056 28.9653 523.803 27.984 524.784 27.344C525.765 26.704 526.981 26.384 528.432 26.384C529.584 26.384 530.587 26.64 531.44 27.152C532.293 27.664 532.955 28.3893 533.424 29.328C533.893 30.2667 534.128 31.376 534.128 32.656C534.128 32.9547 534.043 33.3387 533.872 33.808C533.744 34.2347 533.573 34.5973 533.36 34.896L535.664 31.952H517.488V37.328H544.368C544.453 37.0293 544.496 36.6667 544.496 36.24C544.496 35.7707 544.496 35.3013 544.496 34.832C544.496 31.6747 543.877 28.9867 542.64 26.768C541.403 24.5493 539.611 22.864 537.264 21.712C534.917 20.5173 532.037 19.92 528.624 19.92C525.211 19.92 522.245 20.5387 519.728 21.776C517.253 23.0133 515.355 24.784 514.032 27.088C512.709 29.392 512.048 32.1227 512.048 35.28C512.048 38.3947 512.731 41.104 514.096 43.408C515.461 45.712 517.381 47.504 519.856 48.784C522.373 50.0213 525.339 50.64 528.752 50.64Z" fill="#8F5BFF"/>
<path d="M11 58H64.12V61.2H11V58ZM132.938 58H194.122V61.2H132.938V58ZM297.688 58H374.552V61.2H297.688V58ZM441.062 58H509.991V61.2H441.062V58ZM578.688 58H600.703V61.2H578.688V58Z" fill="#F15488"/>
<path d="M64.125 58H132.925V61.2H64.125V58ZM194.125 58H297.7V61.2H194.125V58ZM374.562 58H441.059V61.2H374.562V58ZM510 58H578.672V61.2H510V58Z" fill="#8F5BFF"/>
</g>
</svg>
