<svg width="100" height="108" viewBox="0 0 100 108" fill="none" xmlns="http://www.w3.org/2000/svg">
<path d="M3.27148 21.78L0.851484 24.8C1.22482 25 1.65815 25.1867 2.15148 25.36C2.63148 25.5467 3.15815 25.7 3.73148 25.82C4.30482 25.94 4.89815 26 5.51148 26C6.23148 26 6.92482 25.9267 7.59148 25.78C8.25815 25.6467 8.85148 25.4267 9.37148 25.12C9.89148 24.8133 10.3048 24.4 10.6115 23.88C10.9182 23.3733 11.0715 22.7467 11.0715 22V7H6.17148V20.9C6.17148 21.46 6.03815 21.8467 5.77148 22.06C5.50482 22.2867 5.21815 22.4 4.91148 22.4C4.65815 22.4 4.38482 22.3333 4.09148 22.2C3.78482 22.0667 3.51148 21.9267 3.27148 21.78ZM58.9487 15.68L55.9887 17.84C56.3087 18.5467 56.782 19.1867 57.4087 19.76C58.0353 20.3333 58.7753 20.78 59.6287 21.1C60.4953 21.4333 61.4287 21.6 62.4287 21.6C63.1487 21.6 63.8487 21.5 64.5287 21.3C65.2087 21.1 65.8153 20.8067 66.3487 20.42C66.8953 20.0333 67.3287 19.5467 67.6487 18.96C67.9687 18.36 68.1287 17.6733 68.1287 16.9C68.1287 16.3533 68.0487 15.86 67.8887 15.42C67.7287 14.9667 67.4887 14.56 67.1687 14.2C66.862 13.84 66.4887 13.5267 66.0487 13.26C65.6087 12.98 65.1087 12.74 64.5487 12.54C64.002 12.34 63.502 12.1667 63.0487 12.02C62.5953 11.86 62.2287 11.6933 61.9487 11.52C61.682 11.3333 61.5487 11.1 61.5487 10.82C61.5487 10.5933 61.642 10.4267 61.8287 10.32C62.0287 10.2133 62.282 10.16 62.5887 10.16C62.842 10.16 63.102 10.2067 63.3687 10.3C63.6353 10.3933 63.8953 10.54 64.1487 10.74C64.4153 10.9267 64.6553 11.1867 64.8687 11.52L68.1287 9.72C67.8753 9.24 67.502 8.76 67.0087 8.28C66.5287 7.8 65.9087 7.4 65.1487 7.08C64.402 6.76 63.502 6.6 62.4487 6.6C61.4753 6.6 60.582 6.76 59.7687 7.08C58.9553 7.4 58.302 7.87333 57.8087 8.5C57.3153 9.12667 57.0687 9.9 57.0687 10.82C57.0687 11.5267 57.1953 12.14 57.4487 12.66C57.7153 13.18 58.042 13.62 58.4287 13.98C58.8287 14.34 59.242 14.6333 59.6687 14.86C60.1087 15.0867 60.4953 15.2667 60.8287 15.4C61.5887 15.6933 62.1553 15.9267 62.5287 16.1C62.902 16.2733 63.1487 16.4267 63.2687 16.56C63.402 16.6933 63.4687 16.8533 63.4687 17.04C63.4687 17.3467 63.3487 17.5733 63.1087 17.72C62.8687 17.8533 62.5753 17.92 62.2287 17.92C61.8153 17.92 61.402 17.8333 60.9887 17.66C60.5887 17.4867 60.2153 17.2333 59.8687 16.9C59.522 16.5533 59.2153 16.1467 58.9487 15.68Z" fill="#F15488"/>
<path d="M27.7668 7V16.4C27.7668 17.4 27.9268 18.2467 28.2468 18.94C28.5801 19.62 29.0335 20.1733 29.6068 20.6C30.1801 21.0133 30.8335 21.3133 31.5668 21.5C32.3135 21.7 33.1001 21.8 33.9268 21.8C34.7535 21.8 35.5335 21.7 36.2668 21.5C37.0135 21.3133 37.6735 21.0133 38.2468 20.6C38.8201 20.1733 39.2668 19.62 39.5868 18.94C39.9201 18.2467 40.0868 17.4 40.0868 16.4V7H35.6868V16C35.6868 16.56 35.5401 17.02 35.2468 17.38C34.9668 17.7267 34.5268 17.9 33.9268 17.9C33.3268 17.9 32.8801 17.7267 32.5868 17.38C32.3068 17.02 32.1668 16.56 32.1668 16V7H27.7668ZM82.8262 10.9H86.8262V21H91.2262V10.9H95.2262V7H82.8262V10.9Z" fill="#8F5BFF"/>
<path d="M97.6066 49.7954C97.6071 49.7954 97.6039 49.8005 97.5957 49.8108C97.602 49.8005 97.6061 49.7954 97.6066 49.7954ZM95.1435 49.2639C96.0406 49.6222 96.6706 49.9528 97.0856 50.2297C96.6706 50.5067 96.0406 50.8373 95.1435 51.1956C92.8553 52.1094 89.3955 52.984 84.9389 53.7368C76.066 55.2356 63.7119 56.1757 50 56.1757C36.2881 56.1757 23.934 55.2356 15.0611 53.7368C10.6045 52.984 7.14471 52.1094 4.85646 51.1956C3.95936 50.8373 3.32938 50.5067 2.91436 50.2297C3.32938 49.9528 3.95936 49.6222 4.85646 49.2639C7.14471 48.35 10.6045 47.4754 15.0611 46.7226C23.934 45.2238 36.2881 44.2838 50 44.2838C63.7119 44.2838 76.066 45.2238 84.9389 46.7226C89.3955 47.4754 92.8553 48.35 95.1435 49.2639ZM2.3934 49.7954C2.39387 49.7954 2.39799 49.8005 2.40435 49.8108C2.39612 49.8006 2.39293 49.7954 2.3934 49.7954ZM2.3934 50.6641C2.39293 50.6641 2.39612 50.6589 2.40436 50.6486C2.39799 50.659 2.39387 50.6641 2.3934 50.6641ZM97.5956 50.6486C97.6039 50.6589 97.6071 50.6641 97.6066 50.6641C97.6061 50.6641 97.602 50.6589 97.5956 50.6486Z" stroke="#191617" stroke-width="5"/>
<path d="M50 108C77.6142 108 100 104.24 100 99.6023V86.5149C100 83.675 97.6433 81.4047 94.8056 81.5142C87.1348 81.8101 73.3242 82.3243 70 82.3243C65.3333 82.3243 39.3333 88.4054 35 88.4054C31.948 88.4054 15.833 83.3778 6.57 80.4046C3.32561 79.3632 0 81.7813 0 85.1887V99.6023C0 104.24 22.3858 108 50 108Z" fill="#191617"/>
<path d="M50 60.3166C77.6142 60.3166 100 56.5568 100 51.9189V73.2547C100 75.887 97.9676 78.0676 95.3408 78.2369C87.7957 78.7234 73.403 79.6216 70 79.6216C65.3333 79.6216 45.3333 84.0135 35 84.0135C26.9808 84.0135 10.3292 78.52 3.27325 76.0594C1.29736 75.3704 0 73.5025 0 71.41V51.9189C0 56.5568 22.3858 60.3166 50 60.3166Z" fill="#191617"/>
<rect x="47.9998" y="35.2767" width="3.33333" height="16.8919" rx="1.66667" fill="#191617"/>
<rect x="74.6667" y="33" width="3.33333" height="16.8919" rx="1.66667" fill="#191617"/>
<rect x="21.3335" y="33" width="3.33333" height="16.8919" rx="1.66667" fill="#191617"/>
</svg>
